<svg width="130" height="35" viewBox="0 0 130 35" fill="none" xmlns="http://www.w3.org/2000/svg">
<path d="M1.20931 23V11.8H8.02531V12.904H2.55331V16.84H7.20931V17.928H2.55331V23H1.20931ZM16.6042 23.192C15.5055 23.192 14.5402 22.952 13.7082 22.472C12.8869 21.9813 12.2415 21.2987 11.7722 20.424C11.3135 19.5493 11.0842 18.5413 11.0842 17.4C11.0842 16.2587 11.3135 15.256 11.7722 14.392C12.2415 13.5173 12.8869 12.8347 13.7082 12.344C14.5402 11.8533 15.5055 11.608 16.6042 11.608C17.7135 11.608 18.6789 11.8533 19.5002 12.344C20.3322 12.8347 20.9775 13.5173 21.4362 14.392C21.8949 15.256 22.1242 16.2587 22.1242 17.4C22.1242 18.5413 21.8949 19.5493 21.4362 20.424C20.9775 21.2987 20.3322 21.9813 19.5002 22.472C18.6789 22.952 17.7135 23.192 16.6042 23.192ZM16.6042 22.008C17.4255 22.008 18.1455 21.8267 18.7642 21.464C19.3935 21.0907 19.8789 20.5627 20.2202 19.88C20.5722 19.1867 20.7482 18.36 20.7482 17.4C20.7482 16.44 20.5722 15.6187 20.2202 14.936C19.8789 14.2533 19.3935 13.7307 18.7642 13.368C18.1455 12.9947 17.4255 12.808 16.6042 12.808C15.7829 12.808 15.0575 12.9947 14.4282 13.368C13.8095 13.7307 13.3242 14.2533 12.9722 14.936C12.6309 15.6187 12.4602 16.44 12.4602 17.4C12.4602 18.36 12.6309 19.1867 12.9722 19.88C13.3242 20.5627 13.8095 21.0907 14.4282 21.464C15.0575 21.8267 15.7829 22.008 16.6042 22.008ZM25.8231 23V11.8H27.1671V21.928H32.3831V23H25.8231ZM35.9893 23V11.8H39.4293C41.4026 11.8 42.8533 12.3013 43.7813 13.304C44.72 14.3067 45.1893 15.6827 45.1893 17.432C45.1893 19.1493 44.72 20.5093 43.7813 21.512C42.8533 22.504 41.4026 23 39.4293 23H35.9893ZM37.3333 21.88H39.3973C40.4853 21.88 41.3493 21.704 41.9893 21.352C42.64 20.9893 43.104 20.4773 43.3813 19.816C43.6586 19.144 43.7973 18.3493 43.7973 17.432C43.7973 16.4933 43.6586 15.688 43.3813 15.016C43.104 14.344 42.64 13.8267 41.9893 13.464C41.3493 13.1013 40.4853 12.92 39.3973 12.92H37.3333V21.88ZM48.8899 23V11.8H55.8179V12.904H50.2339V16.808H55.3379V17.896H50.2339V21.896H55.8179V23H48.8899ZM59.6812 23V11.8H63.2972C64.1719 11.8 64.8865 11.944 65.4412 12.232C65.9959 12.52 66.4065 12.9147 66.6732 13.416C66.9399 13.9173 67.0732 14.472 67.0732 15.08C67.0732 15.784 66.8812 16.4187 66.4972 16.984C66.1239 17.5493 65.5372 17.9493 64.7372 18.184L67.1852 23H65.6012L63.3292 18.376H63.2332H61.0252V23H59.6812ZM61.0252 17.32H63.2012C64.0652 17.32 64.6945 17.112 65.0892 16.696C65.4839 16.28 65.6812 15.7467 65.6812 15.096C65.6812 14.4347 65.4839 13.912 65.0892 13.528C64.7052 13.1333 64.0705 12.936 63.1852 12.936H61.0252V17.32ZM74.4936 23.192C73.6722 23.192 72.9576 23.0427 72.3496 22.744C71.7416 22.4453 71.2722 22.0293 70.9416 21.496C70.6109 20.9627 70.4456 20.344 70.4456 19.64H71.8536C71.8536 20.0773 71.9549 20.4827 72.1576 20.856C72.3602 21.2187 72.6536 21.512 73.0376 21.736C73.4322 21.9493 73.9176 22.056 74.4936 22.056C75.2509 22.056 75.8376 21.8747 76.2536 21.512C76.6696 21.1493 76.8776 20.696 76.8776 20.152C76.8776 19.704 76.7816 19.3467 76.5896 19.08C76.3976 18.8027 76.1362 18.5787 75.8056 18.408C75.4856 18.2373 75.1122 18.088 74.6856 17.96C74.2696 17.832 73.8322 17.688 73.3736 17.528C72.5096 17.2293 71.8696 16.8613 71.4536 16.424C71.0376 15.976 70.8296 15.3947 70.8296 14.68C70.8189 14.0827 70.9576 13.5547 71.2456 13.096C71.5336 12.6267 71.9389 12.264 72.4616 12.008C72.9949 11.7413 73.6242 11.608 74.3496 11.608C75.0642 11.608 75.6829 11.7413 76.2056 12.008C76.7389 12.2747 77.1496 12.6427 77.4376 13.112C77.7362 13.5813 77.8909 14.1147 77.9016 14.712H76.4936C76.4936 14.4027 76.4136 14.0987 76.2536 13.8C76.0936 13.4907 75.8482 13.24 75.5176 13.048C75.1976 12.856 74.7922 12.76 74.3016 12.76C73.6936 12.7493 73.1922 12.904 72.7976 13.224C72.4136 13.544 72.2216 13.9867 72.2216 14.552C72.2216 15.032 72.3549 15.4 72.6216 15.656C72.8989 15.912 73.2829 16.1253 73.7736 16.296C74.2642 16.456 74.8296 16.6427 75.4696 16.856C76.0029 17.048 76.4829 17.272 76.9096 17.528C77.3362 17.784 77.6669 18.1147 77.9016 18.52C78.1469 18.9253 78.2696 19.4427 78.2696 20.072C78.2696 20.6053 78.1309 21.112 77.8536 21.592C77.5762 22.0613 77.1549 22.4453 76.5896 22.744C76.0349 23.0427 75.3362 23.192 74.4936 23.192ZM82.3196 23.08C82.0529 23.08 81.8289 22.9947 81.6476 22.824C81.4769 22.6427 81.3916 22.424 81.3916 22.168C81.3916 21.912 81.4769 21.6987 81.6476 21.528C81.8289 21.3467 82.0529 21.256 82.3196 21.256C82.5756 21.256 82.7889 21.3467 82.9596 21.528C83.1409 21.6987 83.2316 21.912 83.2316 22.168C83.2316 22.424 83.1409 22.6427 82.9596 22.824C82.7889 22.9947 82.5756 23.08 82.3196 23.08ZM91.2482 23.192C90.1495 23.192 89.2002 22.952 88.4002 22.472C87.6109 21.9813 86.9975 21.304 86.5602 20.44C86.1229 19.5653 85.9042 18.552 85.9042 17.4C85.9042 16.2587 86.1229 15.256 86.5602 14.392C86.9975 13.5173 87.6109 12.8347 88.4002 12.344C89.2002 11.8533 90.1495 11.608 91.2482 11.608C92.5282 11.608 93.5682 11.9173 94.3682 12.536C95.1789 13.144 95.6962 13.9973 95.9202 15.096H94.4322C94.2615 14.4027 93.9095 13.848 93.3762 13.432C92.8535 13.0053 92.1442 12.792 91.2482 12.792C90.4482 12.792 89.7495 12.9787 89.1522 13.352C88.5549 13.7147 88.0909 14.2427 87.7602 14.936C87.4402 15.6187 87.2802 16.44 87.2802 17.4C87.2802 18.36 87.4402 19.1867 87.7602 19.88C88.0909 20.5627 88.5549 21.0907 89.1522 21.464C89.7495 21.8267 90.4482 22.008 91.2482 22.008C92.1442 22.008 92.8535 21.8053 93.3762 21.4C93.9095 20.984 94.2615 20.4347 94.4322 19.752H95.9202C95.6962 20.8293 95.1789 21.672 94.3682 22.28C93.5682 22.888 92.5282 23.192 91.2482 23.192ZM104.7 23.192C103.601 23.192 102.636 22.952 101.804 22.472C100.982 21.9813 100.337 21.2987 99.8678 20.424C99.4091 19.5493 99.1798 18.5413 99.1798 17.4C99.1798 16.2587 99.4091 15.256 99.8678 14.392C100.337 13.5173 100.982 12.8347 101.804 12.344C102.636 11.8533 103.601 11.608 104.7 11.608C105.809 11.608 106.774 11.8533 107.596 12.344C108.428 12.8347 109.073 13.5173 109.532 14.392C109.99 15.256 110.22 16.2587 110.22 17.4C110.22 18.5413 109.99 19.5493 109.532 20.424C109.073 21.2987 108.428 21.9813 107.596 22.472C106.774 22.952 105.809 23.192 104.7 23.192ZM104.7 22.008C105.521 22.008 106.241 21.8267 106.86 21.464C107.489 21.0907 107.974 20.5627 108.316 19.88C108.668 19.1867 108.844 18.36 108.844 17.4C108.844 16.44 108.668 15.6187 108.316 14.936C107.974 14.2533 107.489 13.7307 106.86 13.368C106.241 12.9947 105.521 12.808 104.7 12.808C103.878 12.808 103.153 12.9947 102.524 13.368C101.905 13.7307 101.42 14.2533 101.068 14.936C100.726 15.6187 100.556 16.44 100.556 17.4C100.556 18.36 100.726 19.1867 101.068 19.88C101.42 20.5627 101.905 21.0907 102.524 21.464C103.153 21.8267 103.878 22.008 104.7 22.008Z" fill="#E6E6E6"/>
<path d="M121.44 18.3437V12.5781H124.065C124.404 12.5781 124.711 12.651 124.987 12.7969C125.263 12.9375 125.479 13.1406 125.636 13.4062C125.797 13.6667 125.878 13.9766 125.878 14.3359C125.878 14.7005 125.797 15.0208 125.636 15.2969C125.474 15.5677 125.253 15.7812 124.972 15.9375C124.696 16.0885 124.383 16.1641 124.034 16.1641H121.862V15.5156H123.894C124.253 15.5156 124.539 15.4115 124.753 15.2031C124.972 14.9948 125.081 14.7057 125.081 14.3359C125.081 13.9609 124.972 13.6823 124.753 13.5C124.539 13.3177 124.256 13.2266 123.901 13.2266H122.198V18.3437H121.44ZM124.69 15.7109L126.112 18.3437H125.269L123.87 15.7109H124.69ZM123.495 21.7812C122.631 21.7812 121.821 21.6198 121.065 21.2969C120.31 20.974 119.646 20.526 119.073 19.9531C118.5 19.3802 118.052 18.7161 117.729 17.9609C117.407 17.2057 117.245 16.3958 117.245 15.5312C117.245 14.6667 117.407 13.8568 117.729 13.1016C118.052 12.3464 118.5 11.6823 119.073 11.1094C119.646 10.5365 120.31 10.0885 121.065 9.76562C121.821 9.44271 122.631 9.28125 123.495 9.28125C124.36 9.28125 125.17 9.44271 125.925 9.76562C126.68 10.0885 127.344 10.5365 127.917 11.1094C128.49 11.6823 128.938 12.3464 129.261 13.1016C129.584 13.8568 129.745 14.6667 129.745 15.5312C129.745 16.3958 129.584 17.2057 129.261 17.9609C128.938 18.7161 128.49 19.3802 127.917 19.9531C127.344 20.526 126.68 20.974 125.925 21.2969C125.17 21.6198 124.36 21.7812 123.495 21.7812ZM123.495 20.9453C124.495 20.9453 125.404 20.7031 126.222 20.2187C127.045 19.7344 127.698 19.0833 128.183 18.2656C128.667 17.4427 128.909 16.5312 128.909 15.5312C128.909 14.5313 128.664 13.6224 128.175 12.8047C127.69 11.987 127.039 11.3359 126.222 10.8516C125.404 10.362 124.495 10.1172 123.495 10.1172C122.495 10.1172 121.584 10.3594 120.761 10.8437C119.943 11.3281 119.292 11.9818 118.808 12.8047C118.323 13.6224 118.081 14.5313 118.081 15.5312C118.081 16.526 118.323 17.4349 118.808 18.2578C119.292 19.0807 119.943 19.7344 120.761 20.2187C121.584 20.7031 122.495 20.9453 123.495 20.9453Z" fill="#E6E6E6"/>
</svg>
